<svg xmlns="http://www.w3.org/2000/svg" width="166" height="26" fill="none"><path fill="#fff" d="M153.295 8.85v13.833h-3.231V3.41h3.291l9.413 13.944V3.41h3.23v19.273h-3.365L153.295 8.85Zm-8.816-5.44v19.273h-3.287V3.41h3.287Zm-8.872 0v19.273h-3.287V14.43h-9.147v8.252h-3.286V3.41h3.286v7.982h9.147V3.41h3.287ZM96.661 13.02c0-2.951.9-5.357 2.699-7.222C101.159 3.932 103.472 3 106.297 3c2.406 0 4.452.671 6.135 2.01 1.683 1.337 2.723 3.146 3.124 5.426h-3.501c-.327-1.338-.998-2.387-2.024-3.147-1.021-.76-2.265-1.142-3.734-1.142-1.916 0-3.427.62-4.517 1.86-1.096 1.24-1.642 2.91-1.642 5.007 0 2.098.546 3.771 1.642 5.02 1.095 1.25 2.601 1.875 4.517 1.875 1.464 0 2.709-.382 3.734-1.142 1.021-.76 1.697-1.809 2.024-3.147h3.501c-.397 2.28-1.441 4.089-3.124 5.431-1.683 1.338-3.729 2.01-6.135 2.01-2.825 0-5.133-.933-6.937-2.798-1.8-1.864-2.7-4.28-2.7-7.249v.005Zm-3.683 6.624v3.04H79.43V3.41h13.548v3.04H82.717v4.942h9.8v3.04h-9.8v5.211h10.26ZM75.938 3.41v3.124h-5.59v16.149h-3.282V6.533h-5.59V3.41h14.467-.005ZM17.175 7.832H2.107V22.9h15.068V7.832ZM1.054 5.725h18.233v19.287H0V5.725h1.054ZM40.081 7.832H25.013V22.9h15.068V7.832ZM23.96 5.725h18.233v19.287H22.906V5.725h1.054Z"/><path fill="#fff" d="M28.629 2.107H13.56v15.068H28.63V2.107ZM12.507 0h18.234v19.287H11.449V0h1.059Z"/></svg>